<mxfile host="app.diagrams.net" modified="2024-01-21T05:03:26.901Z" agent="Mozilla/5.0 (Windows NT 10.0; Win64; x64) AppleWebKit/537.36 (KHTML, like Gecko) Chrome/120.0.0.0 Safari/537.36" etag="BRv3ZKjb4PDV6ubDbOZx" version="22.1.21" type="github">
  <diagram id="XRvIV-U9tDWavx5nBS04" name="หน้า-1">
    <mxGraphModel dx="1105" dy="558" grid="1" gridSize="10" guides="1" tooltips="1" connect="1" arrows="1" fold="1" page="1" pageScale="1" pageWidth="827" pageHeight="1169" math="0" shadow="0">
      <root>
        <mxCell id="0" />
        <mxCell id="1" parent="0" />
        <mxCell id="PQ0FAKXVn-qLneXqKF0l-1" value="&lt;span style=&quot;font-size: 12.8px;&quot;&gt;&lt;b&gt;Royal Thai Government&lt;/b&gt;&lt;/span&gt;" style="rounded=1;whiteSpace=wrap;html=1;" parent="1" vertex="1">
          <mxGeometry x="220" y="160" width="120" height="60" as="geometry" />
        </mxCell>
        <mxCell id="PQ0FAKXVn-qLneXqKF0l-2" value="&lt;a style=&quot;box-sizing: border-box; font-family: CSChatThaiUI; color: rgb(36, 36, 39); text-decoration-line: none; background-color: rgb(255, 255, 255); font-size: 12.8px; text-align: left;&quot; rel=&quot;noopener&quot; target=&quot;_blank&quot; href=&quot;http://www.opm.go.th/opmportal/default.asp&quot; title=&quot;สำนักนายกรัฐมนตรี&quot;&gt;&lt;span style=&quot;box-sizing: border-box; font-weight: bolder;&quot;&gt;The Prime Minister&#39;s Office&lt;/span&gt;&lt;/a&gt;" style="rounded=1;whiteSpace=wrap;html=1;" parent="1" vertex="1">
          <mxGeometry x="440" y="160" width="140" height="60" as="geometry" />
        </mxCell>
        <mxCell id="PQ0FAKXVn-qLneXqKF0l-3" value="&lt;a title=&quot;สำนักนายกรัฐมนตรี&quot; href=&quot;http://www.opm.go.th/opmportal/default.asp&quot; target=&quot;_blank&quot; rel=&quot;noopener&quot; style=&quot;box-sizing: border-box; font-family: CSChatThaiUI; color: rgb(36, 36, 39); text-decoration-line: none; background-color: rgb(255, 255, 255); font-size: 12.8px; text-align: left;&quot;&gt;&lt;span style=&quot;box-sizing: border-box; font-weight: bolder;&quot;&gt;The Prime Minister&#39;s Office&lt;/span&gt;&lt;/a&gt;" style="rounded=1;whiteSpace=wrap;html=1;" parent="1" vertex="1">
          <mxGeometry x="50" y="270" width="140" height="60" as="geometry" />
        </mxCell>
        <mxCell id="PQ0FAKXVn-qLneXqKF0l-10" style="edgeStyle=orthogonalEdgeStyle;rounded=0;orthogonalLoop=1;jettySize=auto;html=1;" parent="1" source="PQ0FAKXVn-qLneXqKF0l-4" target="PQ0FAKXVn-qLneXqKF0l-5" edge="1">
          <mxGeometry relative="1" as="geometry" />
        </mxCell>
        <mxCell id="PQ0FAKXVn-qLneXqKF0l-17" style="edgeStyle=orthogonalEdgeStyle;rounded=0;orthogonalLoop=1;jettySize=auto;html=1;" parent="1" source="PQ0FAKXVn-qLneXqKF0l-4" target="PQ0FAKXVn-qLneXqKF0l-7" edge="1">
          <mxGeometry relative="1" as="geometry" />
        </mxCell>
        <mxCell id="PQ0FAKXVn-qLneXqKF0l-20" value="" style="edgeStyle=orthogonalEdgeStyle;rounded=0;orthogonalLoop=1;jettySize=auto;html=1;" parent="1" source="PQ0FAKXVn-qLneXqKF0l-4" target="PQ0FAKXVn-qLneXqKF0l-6" edge="1">
          <mxGeometry relative="1" as="geometry">
            <Array as="points">
              <mxPoint x="426" y="650" />
              <mxPoint x="426" y="650" />
            </Array>
          </mxGeometry>
        </mxCell>
        <mxCell id="PQ0FAKXVn-qLneXqKF0l-4" value="Orders" style="rounded=1;whiteSpace=wrap;html=1;" parent="1" vertex="1">
          <mxGeometry x="385" y="522.5" width="100" height="85" as="geometry" />
        </mxCell>
        <mxCell id="PQ0FAKXVn-qLneXqKF0l-19" style="edgeStyle=orthogonalEdgeStyle;rounded=0;orthogonalLoop=1;jettySize=auto;html=1;" parent="1" source="PQ0FAKXVn-qLneXqKF0l-5" target="PQ0FAKXVn-qLneXqKF0l-6" edge="1">
          <mxGeometry relative="1" as="geometry">
            <Array as="points">
              <mxPoint x="270" y="700" />
            </Array>
          </mxGeometry>
        </mxCell>
        <mxCell id="PQ0FAKXVn-qLneXqKF0l-5" value="Products" style="rounded=1;whiteSpace=wrap;html=1;" parent="1" vertex="1">
          <mxGeometry x="220" y="520" width="100" height="90" as="geometry" />
        </mxCell>
        <mxCell id="PQ0FAKXVn-qLneXqKF0l-6" value="Organizations" style="rounded=1;whiteSpace=wrap;html=1;" parent="1" vertex="1">
          <mxGeometry x="220" y="650" width="430" height="80" as="geometry" />
        </mxCell>
        <mxCell id="PQ0FAKXVn-qLneXqKF0l-13" style="edgeStyle=orthogonalEdgeStyle;rounded=0;orthogonalLoop=1;jettySize=auto;html=1;" parent="1" source="PQ0FAKXVn-qLneXqKF0l-7" target="PQ0FAKXVn-qLneXqKF0l-6" edge="1">
          <mxGeometry relative="1" as="geometry">
            <Array as="points">
              <mxPoint x="600" y="705" />
            </Array>
          </mxGeometry>
        </mxCell>
        <mxCell id="PQ0FAKXVn-qLneXqKF0l-7" value="Invoices" style="rounded=1;whiteSpace=wrap;html=1;" parent="1" vertex="1">
          <mxGeometry x="550" y="520" width="100" height="90" as="geometry" />
        </mxCell>
        <mxCell id="8NOSFWxA2Sr4H5J_uqD4-1" value="My World" style="ellipse;whiteSpace=wrap;html=1;aspect=fixed;fillColor=#dae8fc;strokeColor=#6c8ebf;" vertex="1" parent="1">
          <mxGeometry x="1210" y="180" width="80" height="80" as="geometry" />
        </mxCell>
        <mxCell id="8NOSFWxA2Sr4H5J_uqD4-6" value="modeling" style="edgeStyle=orthogonalEdgeStyle;rounded=0;orthogonalLoop=1;jettySize=auto;html=1;curved=1;" edge="1" parent="1" source="8NOSFWxA2Sr4H5J_uqD4-1" target="8NOSFWxA2Sr4H5J_uqD4-3">
          <mxGeometry relative="1" as="geometry" />
        </mxCell>
        <mxCell id="8NOSFWxA2Sr4H5J_uqD4-2" value="Universe" style="ellipse;whiteSpace=wrap;html=1;aspect=fixed;horizontal=1;verticalAlign=top;fillColor=none;" vertex="1" parent="1">
          <mxGeometry x="1180" y="130" width="140" height="140" as="geometry" />
        </mxCell>
        <mxCell id="8NOSFWxA2Sr4H5J_uqD4-9" value="impliment" style="edgeStyle=orthogonalEdgeStyle;rounded=0;orthogonalLoop=1;jettySize=auto;html=1;curved=1;" edge="1" parent="1" source="8NOSFWxA2Sr4H5J_uqD4-3" target="8NOSFWxA2Sr4H5J_uqD4-4">
          <mxGeometry relative="1" as="geometry">
            <Array as="points">
              <mxPoint x="1070" y="505" />
            </Array>
          </mxGeometry>
        </mxCell>
        <mxCell id="8NOSFWxA2Sr4H5J_uqD4-3" value="Mathermatics" style="ellipse;whiteSpace=wrap;html=1;aspect=fixed;fillColor=#d5e8d4;strokeColor=#82b366;" vertex="1" parent="1">
          <mxGeometry x="1020" y="310" width="110" height="110" as="geometry" />
        </mxCell>
        <mxCell id="8NOSFWxA2Sr4H5J_uqD4-10" value="build" style="edgeStyle=orthogonalEdgeStyle;rounded=0;orthogonalLoop=1;jettySize=auto;html=1;curved=1;" edge="1" parent="1" source="8NOSFWxA2Sr4H5J_uqD4-4" target="8NOSFWxA2Sr4H5J_uqD4-5">
          <mxGeometry relative="1" as="geometry" />
        </mxCell>
        <mxCell id="8NOSFWxA2Sr4H5J_uqD4-4" value="Code" style="ellipse;whiteSpace=wrap;html=1;aspect=fixed;fillColor=#f8cecc;strokeColor=#b85450;" vertex="1" parent="1">
          <mxGeometry x="1210" y="450" width="110" height="110" as="geometry" />
        </mxCell>
        <mxCell id="8NOSFWxA2Sr4H5J_uqD4-11" value="deliver" style="edgeStyle=orthogonalEdgeStyle;rounded=0;orthogonalLoop=1;jettySize=auto;html=1;curved=1;" edge="1" parent="1" source="8NOSFWxA2Sr4H5J_uqD4-5" target="8NOSFWxA2Sr4H5J_uqD4-1">
          <mxGeometry relative="1" as="geometry">
            <mxPoint x="1440" y="209.9999999999999" as="targetPoint" />
            <Array as="points">
              <mxPoint x="1445" y="220" />
            </Array>
          </mxGeometry>
        </mxCell>
        <mxCell id="8NOSFWxA2Sr4H5J_uqD4-5" value="Machine" style="ellipse;whiteSpace=wrap;html=1;aspect=fixed;fillColor=#e1d5e7;strokeColor=#9673a6;" vertex="1" parent="1">
          <mxGeometry x="1390" y="300" width="110" height="110" as="geometry" />
        </mxCell>
      </root>
    </mxGraphModel>
  </diagram>
</mxfile>
